<?xml version="1.0" encoding="iso-8859-1"?>
<!-- Generator: Adobe Illustrator 19.0.0, SVG Export Plug-In . SVG Version: 6.00 Build 0)  -->
<svg xmlns="http://www.w3.org/2000/svg" xmlns:xlink="http://www.w3.org/1999/xlink" version="1.1" id="Capa_1" x="0px" y="0px" viewBox="0 0 511.999 511.999" style="enable-background:new 0 0 511.999 511.999;" xml:space="preserve" width="512px" height="512px">
<g>
	<g>
		<path d="M277.105,234.907c-5.631-5.631-13.119-8.733-21.083-8.733c-7.964,0-15.451,3.102-21.082,8.733    c-18.615,18.615-5.583,50.896,21.082,50.896C282.486,285.803,295.833,253.636,277.105,234.907z M256.021,270.795    c-13.099,0-19.817-15.931-10.47-25.276c2.797-2.797,6.514-4.336,10.47-4.336c3.955,0,7.674,1.54,10.471,4.337    C275.79,254.817,269.17,270.795,256.021,270.795z" fill="#FFFFFF"/>
	</g>
</g>
<g>
	<g>
		<path d="M483.909,348.189c-30.736-30.735-76.911-36.151-113.138-16.746l-37.995-37.995v-19.949c0-4.144-3.36-7.504-7.504-7.504    c-4.144,0-7.504,3.36-7.504,7.504v23.056c0,4.422-5.071-1.961,88.273,91.38c-8.371,2.983-15.098,9.718-18.073,18.073    c-92.886-92.887-86.939-88.272-91.381-88.272c-87.941,0-83.414-0.83-86.441,2.198l-86.074,86.076    c-3.047-8.56-9.904-15.166-18.071-18.074c92.886-92.887,88.269-86.938,88.269-91.379c0-87.843,0.846-83.398-2.198-86.443    l-86.075-86.073c8.234-2.932,15.052-9.584,18.073-18.072c93.23,93.229,86.953,88.273,91.38,88.273h23.059    c4.144,0,7.504-3.36,7.504-7.504c0-4.144-3.36-7.504-7.504-7.504h-19.951l-37.992-37.992c9.464-17.667,13.191-38.33,10.477-58.293    C180.302,3.956,83.776-27.539,28.138,28.103C10.015,46.226,0.033,70.319,0.033,95.947s9.981,49.722,28.104,67.845    c30.742,30.742,76.949,36.145,113.144,16.755l37.983,37.983v74.921l-38.007,38.007c-0.211-0.14-0.432-0.271-0.661-0.391    c-17.73-9.317-38.463-12.864-58.386-9.993C3.809,332.383-27.323,428.416,28.136,483.876c37.407,37.405,98.276,37.408,135.685,0    c29.941-29.942,36.626-76.059,16.747-113.136l37.995-37.997h74.919l37.986,37.987c-9.511,17.75-13.216,38.549-10.427,58.594    c2.895,20.799,12.295,39.663,27.181,54.551c37.497,37.497,98.183,37.501,135.686,0    C521.318,446.466,521.318,385.598,483.909,348.189z M108.548,103.754c-7.515,11.972-26.304,7.706-27.318-6.765    c-0.074-1.043-0.035-2.043,0.101-3.036c0.182-1.356,0.559-2.705,1.117-3.981c0.491-1.114,0.877-1.739,1.379-2.463    c0.277-0.399,0.551-0.758,0.793-1.049c0.029-0.035,0.889-1.031,0.889-0.984c2.789-2.787,6.494-4.321,10.442-4.321    C107.74,81.155,114.536,94.063,108.548,103.754z M74.739,61.929c5.937,0,8.82,3.525,11.216,5.922    C77.828,70.745,70.96,77.306,67.9,85.939c-2.408-2.408-5.94-5.283-5.94-11.232c0-6.324,4.747-10.037,3.746-9.037    C68.089,63.287,71.284,61.929,74.739,61.929z M169.383,130.056L123.287,83.96c-0.469-1.068-0.999-2.109-1.592-3.118l36.564-36.561    C178.032,68.172,182.47,101.852,169.383,130.056z M147.656,33.658l-36.574,36.571c-1.008-0.594-2.049-1.123-3.116-1.592    l-13.579-13.58c-5.248-5.247-12.226-8.136-19.648-8.136c-4.849,0-9.503,1.241-13.612,3.558l-16.821-16.82    C74.204,8.764,117.777,8.783,147.656,33.658z M15.041,95.947c0-19.097,6.579-37.178,18.651-51.674l16.821,16.819    C44.592,71.589,46,85.265,55.092,94.355l13.614,13.615c0.46,1.048,0.978,2.076,1.564,3.076l-36.577,36.576    C21.621,133.124,15.041,115.043,15.041,95.947z M44.315,158.223l36.562-36.562c1.005,0.592,2.043,1.12,3.107,1.588l46.104,46.104    C101.9,182.422,68.182,177.963,44.315,158.223z M106.449,405.562c0.305,0.305,0.588,0.625,0.862,0.951    c0.108,0.13,0.212,0.262,0.315,0.395c0.146,0.186,0.285,0.375,0.421,0.566c0.131,0.186,0.265,0.371,0.387,0.563    c0.029,0.045,0.055,0.093,0.084,0.139c2.295,3.685,2.992,8.173,1.257,13.217c-4.055,10.447-17.909,12.786-25.16,4.12    c-0.241-0.29-0.522-0.657-0.799-1.059c-0.295-0.427-0.48-0.688-0.85-1.375c-0.147-0.273-0.415-0.84-0.523-1.087    c-0.266-0.608-0.284-0.693-0.402-1.025c-0.36-1.024-0.51-1.785-0.51-1.785c-0.064-0.297-0.116-0.597-0.162-0.896    c-0.013-0.087-0.026-0.174-0.038-0.261c-0.13-0.969-0.167-1.952-0.105-2.936c0.002-0.031,0.002-0.063,0.004-0.094    c0.022-0.313,0.056-0.628,0.098-0.941c0.009-0.065,0.019-0.131,0.028-0.196c1.563-10.561,13.385-15.975,22.42-10.401    c0.07,0.04,0.14,0.078,0.208,0.121c0.185,0.118,0.363,0.247,0.542,0.374c0.198,0.141,0.394,0.284,0.586,0.435    c0.129,0.101,0.257,0.202,0.383,0.307C105.821,404.97,106.143,405.256,106.449,405.562z M85.955,444.127    c-2.368,2.367-5.256,5.924-11.217,5.924c-3.266-0.001-6.466-1.209-9.033-3.746c-2.431-2.602-3.745-5.474-3.745-9.035    c0-3.412,1.329-6.621,3.743-9.034l2.197-2.196C70.847,434.351,77.488,441.111,85.955,444.127z M130.097,342.618l-46.106,46.107    c-1.067,0.469-2.107,0.997-3.114,1.591l-36.573-36.572C68.344,333.715,101.553,329.304,130.097,342.618z M33.69,364.355    l36.578,36.577c-0.587,1.001-1.105,2.031-1.566,3.081l-13.61,13.61c-5.249,5.248-8.139,12.226-8.139,19.647    c0,4.85,1.241,9.504,3.559,13.615L33.69,467.707C8.795,437.806,8.813,394.234,33.69,364.355z M44.309,478.314l16.816-16.815    c10.497,5.92,24.173,4.511,33.263-4.578l13.586-13.585c1.065-0.468,2.104-0.995,3.11-1.589l36.566,36.566    C117.768,503.142,74.18,503.128,44.309,478.314z M158.262,467.701l-36.567-36.567c0.592-1.005,1.12-2.042,1.587-3.106    l46.114-46.116C182.545,410.174,178.177,443.702,158.262,467.701z M381.958,342.628c28.199-13.086,61.878-8.649,85.773,11.125    l-36.562,36.562c-1.007-0.594-2.046-1.122-3.113-1.591L381.958,342.628z M437.148,437.112c2.934-2.937,5.467-6.716,7.012-11.056    l2.181,2.181c2.413,2.412,3.742,5.62,3.742,9.033c0,3.405-1.324,6.608-3.725,9.019c-0.005,0.006-0.012,0.01-0.017,0.016    c-0.006,0.006-0.011,0.013-0.018,0.02c-2.411,2.401-5.612,3.727-9.018,3.727c-5.918,0-8.793-3.501-11.217-5.924    c1.937-0.689,3.903-1.641,5.649-2.728c0.159-0.098,0.316-0.198,0.473-0.3c0.279-0.18,0.554-0.366,0.828-0.556    c0.165-0.114,0.329-0.229,0.492-0.347c0.264-0.192,0.523-0.391,0.782-0.591c0.16-0.124,0.32-0.246,0.478-0.374    c0.269-0.218,0.532-0.445,0.794-0.673c0.136-0.118,0.275-0.232,0.41-0.354c0.388-0.35,0.77-0.709,1.143-1.082    C437.141,437.118,437.144,437.116,437.148,437.112C437.147,437.112,437.148,437.112,437.148,437.112z M403.489,408.235    c1.173-1.869,2.47-3.174,4.025-4.278c13.527-9.575,30.141,7.065,20.63,20.619c-2.927,4.104-7.39,6.246-12.05,6.246    C404.291,430.822,397.526,417.904,403.489,408.235z M342.661,381.924l46.099,46.1c0.468,1.066,0.997,2.105,1.589,3.11    l-36.561,36.561C334.055,443.832,329.592,410.107,342.661,381.924z M364.389,478.319l36.573-36.573    c1.006,0.593,2.044,1.121,3.109,1.589l13.586,13.584c5.248,5.248,12.225,8.139,19.648,8.139c4.85,0,9.505-1.241,13.616-3.561    l16.822,16.822C437.844,503.214,394.268,503.199,364.389,478.319z M478.349,467.701l-16.817-16.817    c5.918-10.496,4.51-24.171-4.58-33.26l-13.579-13.578c-0.469-1.068-0.997-2.109-1.593-3.118l36.566-36.565    C503.152,394.217,503.152,437.846,478.349,467.701z" fill="#FFFFFF"/>
	</g>
</g>
<g>
	<g>
		<path d="M483.909,28.103c-37.41-37.408-98.279-37.409-135.687,0c-29.844,29.841-36.59,76.094-16.743,113.134l-37.997,37.997    h-19.951c-4.144,0-7.504,3.36-7.504,7.504s3.36,7.504,7.504,7.504c24.535,0,25.52,0.646,28.364-2.198l86.075-86.075    c3.028,8.505,9.853,15.146,18.073,18.072c-92.886,92.887-88.275,86.943-88.275,91.385l0.001,23.056    c0,4.145,3.36,7.504,7.504,7.504c4.144,0,7.504-3.36,7.504-7.504l-0.001-19.949l37.986-37.987    c37.167,19.937,83.211,13.176,113.145-16.758C521.316,126.379,521.317,65.511,483.909,28.103z M388.759,83.957l-46.107,46.107    c-13.117-28.238-8.714-61.839,11.133-85.786l36.566,36.563C389.756,81.849,389.227,82.889,388.759,83.957z M364.396,33.663    c29.855-24.802,73.484-24.802,103.34,0.001L450.92,50.479c-4.111-2.318-8.766-3.559-13.614-3.559    c-7.422,0-14.401,2.89-19.647,8.136L404.073,68.64c-1.065,0.468-2.103,0.996-3.109,1.589L364.396,33.663z M446.34,83.743    l-2.18,2.18c-1.089-3.058-2.685-5.921-4.736-8.498c-0.025-0.031-0.049-0.063-0.073-0.093c-0.294-0.366-0.598-0.726-0.91-1.081    c-0.06-0.068-0.117-0.139-0.178-0.207c-0.358-0.398-0.726-0.791-1.109-1.174c-0.001-0.002-0.003-0.004-0.005-0.006    c-0.376-0.376-0.761-0.739-1.154-1.093c-0.126-0.114-0.257-0.221-0.384-0.332c-0.272-0.237-0.545-0.472-0.824-0.697    c-0.15-0.121-0.302-0.236-0.453-0.354c-0.267-0.208-0.536-0.414-0.809-0.611c-0.155-0.113-0.312-0.222-0.469-0.331    c-0.282-0.196-0.566-0.388-0.853-0.574c-0.149-0.096-0.299-0.191-0.45-0.285c-0.313-0.194-0.63-0.382-0.95-0.564    c-0.128-0.073-0.256-0.147-0.386-0.218c-0.375-0.207-0.755-0.403-1.139-0.593c-0.077-0.038-0.152-0.079-0.229-0.116    c-0.964-0.466-1.948-0.883-2.957-1.243l2.18-2.18c2.413-2.413,5.622-3.741,9.036-3.741c3.414,0,6.62,1.327,9.033,3.739    C451.322,70.654,451.323,78.76,446.34,83.743z M410.626,82.176c1.001-0.333,2.758-1.022,5.469-1.022    c4.289,0,8.394,1.816,11.303,5.274c0.202,0.241,0.47,0.584,0.742,0.969c0.488,0.693,0.319,0.461,0.494,0.743    c2.389,3.869,2.874,8.176,1.202,13.239c-1.501,3.807-4.503,6.824-8.326,8.333c-5.069,1.671-9.359,1.202-13.239-1.189    C398.163,102.25,399.168,86.699,410.626,82.176z M381.949,169.36l46.107-46.11c1.066-0.468,2.105-0.997,3.112-1.59l36.568,36.568    C443.712,178.177,410.219,182.523,381.949,169.36z M478.346,147.616l-36.566-36.566c0.593-1.007,1.122-2.046,1.59-3.112    l13.582-13.582c8.995-8.995,10.514-22.67,4.571-33.257l16.823-16.822C503.151,74.13,503.151,117.76,478.346,147.616z" fill="#FFFFFF"/>
	</g>
</g>
<g>
</g>
<g>
</g>
<g>
</g>
<g>
</g>
<g>
</g>
<g>
</g>
<g>
</g>
<g>
</g>
<g>
</g>
<g>
</g>
<g>
</g>
<g>
</g>
<g>
</g>
<g>
</g>
<g>
</g>
</svg>
